# xmcd CD database file
#
# Track frame offsets:
#	150
#	19663
#	36672
#	54201
#	75084
#	96398
#	116315
#	135067
#	155377
#	172042
#	191026
#	211461
#
# Disc length: 3098 seconds
#
# Revision: 0
# Processed by: cddbd v1.5.2PL0 Copyright (c) Steve Scherf et al.
# Submitted via: CDex 1.70beta2
#
DISCID=910c180c
DTITLE=Maarit - Kun yö saapuu
DYEAR=2008
DGENRE=Kotimainen
TTITLE0=Yö saapuu Pariisiin
TTITLE1=Mikset sä tuu
TTITLE2=Tikkurilan asemalla
TTITLE3=Itsestään selvää
TTITLE4=Kauas pakenen
TTITLE5=Oi sisko
TTITLE6=Ainalämmin olkapää
TTITLE7=Kattoon kirjoitan
TTITLE8=Aika
TTITLE9=Tuu avaamaan
TTITLE10=Juuret
TTITLE11=Heinäpellon taa
EXTD=YEAR: 2008
EXTT0=
EXTT1=
EXTT2=
EXTT3=
EXTT4=
EXTT5=
EXTT6=
EXTT7=
EXTT8=
EXTT9=
EXTT10=
EXTT11=
PLAYORDER=
